<svg xmlns="http://www.w3.org/2000/svg" viewBox="0 0 64 64">
  <rect width="64" height="64" rx="14" fill="#111827" />
  <path
    d="M20 12h18l10 10v30H20z"
    fill="#ffffff"
    stroke="#e5e7eb"
    stroke-width="2.5"
    stroke-linejoin="round"
  />
  <path d="M38 12v11h10" fill="#d1d5db" />
  <path
    d="M24 35h16M24 43h11"
    stroke="#111827"
    stroke-width="3"
    stroke-linecap="round"
  />
  <path
    d="M45 30l1.4 3.6L50 35l-3.6 1.4L45 40l-1.4-3.6L40 35l3.6-1.4z"
    fill="#111827"
  />
  <circle cx="29" cy="25" r="4" fill="#0f172a" />
  <path
    d="M29 18v2M29 30v2M22 25h2M34 25h2M24.1 20.1l1.4 1.4M32.5 28.5l1.4 1.4M33.9 20.1l-1.4 1.4M25.5 28.5l-1.4 1.4"
    stroke="#0f172a"
    stroke-width="2"
    stroke-linecap="round"
  />
</svg>
